<?xml version="1.0" encoding="utf-8"?>
<!-- Generator: Adobe Illustrator 16.0.0, SVG Export Plug-In . SVG Version: 6.00 Build 0)  -->
<!DOCTYPE svg PUBLIC "-//W3C//DTD SVG 1.1//EN" "http://www.w3.org/Graphics/SVG/1.1/DTD/svg11.dtd">
<svg version="1.1" id="Layer_1" xmlns="http://www.w3.org/2000/svg" xmlns:xlink="http://www.w3.org/1999/xlink" x="0px" y="0px"
	 width="500px" height="465px" viewBox="0 0 500 465" enable-background="new 0 0 500 465" xml:space="preserve">
<path d="M124.981,196.471h357.088c17.854,0,17.854,0,17.854-17.894V17.894C499.924,0,499.924,0,482.069,0H124.981
	c-17.854,0-17.854,0-17.854,17.894v160.683C107.127,196.471,107.127,196.471,124.981,196.471z M303.525,151.738
	c-29.281,0-53.563-23.978-53.563-53.681c0-29.345,24.282-53.681,53.563-53.681c29.639,0,53.562,24.335,53.562,53.681
	C357.088,127.76,333.164,151.738,303.525,151.738z M0,250.867V465.59h71.418V250.867H0z M107.127,250.867v156.747
	c32.852,10.379,69.989,22.188,110.697,22.188c107.485,0,185.687-64.416,255.675-114.876c18.928-13.6,21.425-31.493,13.568-43.303
	c-6.783-10.379-21.781-16.104-40.349-10.379l-85.703,27.2c0,28.628-34.993,50.102-54.635,50.102H188.186
	c2.143-10.737,17.141-28.631,57.134-28.631h57.491c21.427,0,31.782-14.673,31.782-29.345c0-14.673-10.714-29.704-31.782-29.704
	H107.127z"/>
</svg>
