<?xml version="1.0" encoding="utf-8"?>
<!-- Generator: Adobe Illustrator 16.0.0, SVG Export Plug-In . SVG Version: 6.00 Build 0)  -->
<!DOCTYPE svg PUBLIC "-//W3C//DTD SVG 1.1//EN" "http://www.w3.org/Graphics/SVG/1.1/DTD/svg11.dtd">
<svg version="1.1" id="Layer_1" xmlns="http://www.w3.org/2000/svg" xmlns:xlink="http://www.w3.org/1999/xlink" x="0px" y="0px"
	 width="500px" height="468px" viewBox="0 0 500 468" enable-background="new 0 0 500 468" xml:space="preserve">
<path d="M245.035,245.242l41.901,41.901l48.214-46.624v0.18l34.393-33.26v-0.172l11.192-10.826l119.3-115.359l-20.42-21.137
	l-20.421-21.138l-119.3,115.001L245.035,245.242z M274.347,300.35l-41.758-41.759l-22.384,63.956l63.411-21.495L274.347,300.35z
	 M273.173,100.606v40.483H96.372v-40.483H273.173z M307.564,66.034H61.979v109.627h206.573l39.013-37.553V66.034z M323.508,34.687
	c8.061,0.717,11.643,6.807,11.643,12.718v64c2.666-2.558,5.353-5.123,8.062-7.667l26.331-25.537V43.285
	c0-0.538-0.537-3.045-0.716-4.479c-1.433-7.881-4.658-16.121-11.465-23.466c-6.984-7.881-15.404-11.822-22.569-13.792
	c-3.583-0.896-6.807-1.075-10.39-1.433H44.961c-1.612,0.179-3.403,0.179-4.657,0.358c-2.329,0.359-4.658,0.896-6.807,1.433
	c-1.612,0.538-3.403,1.254-4.657,1.612c-1.612,0.538-3.224,1.612-4.836,2.329C11.644,11.938,3.045,26.088,1.075,36.12
	C0.717,38.448,0.358,40.956,0,43.285V424.83c0,0.357,0.537,4.837,1.075,7.165c0.537,2.328,1.433,4.478,2.15,6.807
	c0.537,1.075,1.254,2.508,1.612,3.583c5.732,12.896,21.496,22.928,32.243,24.541c2.508,0.358,5.016,0.895,7.523,1.074h280.158
	c0.536,0,4.657-0.538,6.807-0.896c2.149-0.358,5.374-1.254,7.702-2.149c5.911-2.33,12.182-5.732,18.092-12.181
	c5.912-6.449,9.136-13.794,10.748-20.063c0.538-2.687,1.074-5.374,1.433-8.06V254.551l-34.393,33.41V420.53
	c0.18,7.165-6.09,12.897-11.284,12.897H45.499c-7.882-1.074-11.106-7.166-11.106-12.718V47.583c0.179-0.896,0.179-2.149,0.179-2.866
	c0.717-5.732,6.986-10.389,11.285-10.031H323.508z M307.293,368.404H62.244v34.393h245.049V368.404z M184.769,296.036H62.244v34.392
	h122.524V296.036z M184.769,217.219H62.244v34.392h122.524V217.219z"/>
</svg>
