<?xml version="1.0" encoding="utf-8"?>
<!-- Generator: Adobe Illustrator 16.0.0, SVG Export Plug-In . SVG Version: 6.00 Build 0)  -->
<!DOCTYPE svg PUBLIC "-//W3C//DTD SVG 1.1//EN" "http://www.w3.org/Graphics/SVG/1.1/DTD/svg11.dtd">
<svg version="1.1" id="Layer_1" xmlns="http://www.w3.org/2000/svg" xmlns:xlink="http://www.w3.org/1999/xlink" x="0px" y="0px"
	 width="500px" height="425px" viewBox="0 0 500 425" enable-background="new 0 0 500 425" xml:space="preserve">
<title></title>
<g id="icomoon-ignore">
</g>
<path d="M287.879,0C405.03,0,500,94.97,500,212.121s-94.97,212.121-212.121,212.121v-45.454c44.519,0,86.372-17.336,117.852-48.815
	s48.815-73.333,48.815-117.852c0-44.518-17.336-86.372-48.815-117.852c-31.479-31.479-73.333-48.815-117.852-48.815
	c-44.518,0-86.372,17.336-117.852,48.815c-24.214,24.213-40.048,54.567-46.073,87.548h88.167L106.061,303.03L0,181.818h77.921
	C92.628,79.023,181.017,0,287.879,0z M378.788,181.818v60.606H257.576V90.909h60.605v90.909H378.788z"/>
</svg>
